#!OML:ASF E:\I on waltz\AllaLogoMonkeySwing\Project 1\Capture day 1\Session 1\Subject1.ASF
:FULLY-SPECIFIED
:DEGREES
385
root 0.883156 16.9959 3.1858 7.97813 2.30452 2.44923
lowerback 22.9667 0.6319 -2.76049
upperback 9.02104 0.305522 0.956509
thorax -2.9404 0.0894567 2.52585
lowerneck 0.232733 -3.25112 -5.77476
upperneck -14.61 -3.16964 12.431
head -4.02478 -1.9317 4.91729
rclavicle 1.98785e-016 5.56597e-015
rhumerus -21.9221 11.4089 -73.8512
rradius 40.8844
rwrist -3.51527
rhand -3.43696 -35.997
rfingers 7.12502
rthumb 22.2945 -64.7309
lclavicle 1.98785e-016 5.56597e-015
lhumerus -32.9384 5.02412 77.6554
lradius 44.8971
lwrist -0.700304
lhand -0.394479 -13.6136
lfingers 7.12502
lthumb 25.2125 14.7409
rfemur -31.2688 -14.4784 12.9176
rtibia 47.2285
rfoot -19.8569 -8.74309
rtoes 13.1102
lfemur -31.1501 8.10292 -19.1166
ltibia 45.1468
lfoot -21.9113 0.34381
ltoes -24.2959
386
root 0.875841 17.1254 3.32482 7.79281 1.83023 2.89861
lowerback 21.4962 0.912647 -3.63155
upperback 8.35686 0.522451 0.879328
thorax -2.94105 0.189968 2.88597
lowerneck 0.10552 -3.33598 -5.87783
upperneck -14.3294 -3.26747 12.7626
head -3.89807 -1.98045 5.03006
rclavicle -1.98785e-016 4.37326e-015
rhumerus -23.762 9.19393 -74.6118
rradius 39.8408
rwrist -3.43497
rhand -3.33963 -36.0782
rfingers 7.12502
rthumb 22.388 -64.8009
lclavicle -1.98785e-016 4.37326e-015
lhumerus -34.6491 5.9573 77.4525
lradius 43.8247
lwrist -0.52018
lhand -0.294849 -13.5024
lfingers 7.12502
lthumb 25.3079 14.8386
rfemur -29.1712 -13.3017 12.1289
rtibia 44.6419
rfoot -19.2301 -9.21206
rtoes 12.6087
lfemur -28.7297 7.71534 -19.3707
ltibia 42.2521
lfoot -21.1439 0.739887
ltoes -24.8078
387
root 0.875318 17.2457 3.47929 7.64588 1.84687 2.63904
lowerback 19.9888 0.88636 -3.55488
upperback 7.6158 0.551676 0.965422
thorax -2.97895 0.215999 2.92734
lowerneck -0.26801 -3.39205 -5.8187
upperneck -13.6237 -3.37013 12.9009
head -3.61137 -2.01251 5.03657
rclavicle 3.18055e-015 -3.57812e-015
rhumerus -25.6362 6.89985 -75.1918
rradius 38.843
rwrist -3.24218
rhand -3.53348 -36.0193
rfingers 7.12502
rthumb 22.2019 -64.7643
lclavicle 3.18055e-015 -3.57812e-015
lhumerus -36.4661 6.95766 77.0608
lradius 42.907
lwrist -0.671558
lhand 0.0722912 -13.3963
lfingers 7.12502
lthumb 25.6596 14.8944
rfemur -26.8477 -12.4692 12.1764
rtibia 41.8028
rfoot -18.5885 -9.53351
rtoes 12.5287
lfemur -26.4607 7.0499 -18.8591
ltibia 39.4653
lfoot -20.397 1.08432
ltoes -25.3353
388
root 0.875247 17.3525 3.6316 7.52651 1.93359 2.39204
lowerback 18.2034 0.806567 -3.39742
upperback 7.03893 0.532089 0.987607
thorax -2.6751 0.211172 2.86567
lowerneck -0.656879 -3.4618 -5.54077
upperneck -13.0225 -3.49822 12.8485
head -3.36234 -2.05974 4.94968
rclavicle 5.96354e-015 7.95139e-016
rhumerus -27.1624 4.28901 -75.5928
rradius 37.8321
rwrist -2.86419
rhand -3.60854 -35.9804
rfingers 7.12502
rthumb 22.1298 -64.7338
lclavicle 5.96354e-015 7.95139e-016
lhumerus -37.8772 8.11186 76.4836
lradius 41.9573
lwrist -1.16097
lhand 0.638175 -13.191
lfingers 7.12502
lthumb 26.2015 15.0205
rfemur -24.5608 -11.6157 12.2104
rtibia 38.952
rfoot -18.0551 -9.74641
rtoes 13.4927
lfemur -24.2548 6.27469 -18.4128
ltibia 36.6569
lfoot -19.5902 1.51838
ltoes -26.1436
389
root 0.869747 17.4482 3.77501 7.42843 1.87151 2.20526
lowerback 16.5317 0.812856 -3.39321
upperback 6.4051 0.589298 0.971318
thorax -2.47917 0.245275 2.83626
lowerneck -1.02918 -3.54406 -5.27169
upperneck -12.2668 -3.65415 12.8605
head -3.06688 -2.11861 4.88152
rclavicle -4.17448e-015 2.38542e-015
rhumerus -28.5553 1.50079 -75.8051
rradius 36.6624
rwrist -2.38941
rhand -3.64589 -35.9683
rfingers 7.12502
rthumb 22.094 -64.726
lclavicle -4.17448e-015 2.38542e-015
lhumerus -39.2413 9.36655 75.7677
lradius 41.047
lwrist -1.87562
lhand 1.16438 -12.8607
lfingers 7.12502
lthumb 26.7052 15.275
rfemur -22.4332 -10.5596 12.2467
rtibia 36.2039
rfoot -17.5606 -10.0485
rtoes 14.5847
lfemur -22.0932 5.52618 -18.0309
ltibia 33.8543
lfoot -18.6917 1.95699
ltoes -26.4022
390
root 0.861764 17.5355 3.91669 7.32676 1.79261 2.01166
lowerback 15.1112 0.840146 -3.49061
upperback 5.65992 0.652368 1.01395
thorax -2.52041 0.286859 2.92736
lowerneck -1.50791 -3.63477 -4.9718
upperneck -11.2232 -3.86277 12.7029
head -2.67115 -2.18632 4.7473
rclavicle 1.2921e-014 9.54166e-015
rhumerus -29.8414 -1.43464 -75.6848
rradius 35.332
rwrist -1.77333
rhand -3.87901 -35.7982
rfingers 7.12502
rthumb 21.8701 -64.5822
lclavicle 1.2921e-014 9.54166e-015
lhumerus -40.3128 11.2347 74.8039
lradius 39.6305
lwrist -3.10394
lhand 1.61015 -12.7297
lfingers 7.12502
lthumb 27.1317 15.3402
rfemur -20.4102 -9.54809 12.3714
rtibia 33.6035
rfoot -16.9667 -10.4656
rtoes 14.7006
lfemur -19.9537 4.7596 -17.6605
ltibia 31.1013
lfoot -18.0759 2.4415
ltoes -26.9213
391
root 0.854594 17.6125 4.05397 7.16899 1.77918 1.97291
lowerback 13.7986 0.81497 -3.74198
upperback 4.98924 0.625574 1.03455
thorax -2.52289 0.282199 3.09843
lowerneck -2.1983 -3.7146 -4.48279
upperneck -9.99639 -4.09795 12.1653
head -2.2027 -2.25061 4.45823
rclavicle -3.77691e-015 -3.97569e-016
rhumerus -30.825 -4.66721 -75.2627
rradius 33.9584
rwrist -0.723802
rhand -4.12821 -35.6888
rfingers 7.12502
rthumb 21.6308 -64.5005
lclavicle -3.77691e-015 -3.97569e-016
lhumerus -41.2821 13.1901 73.7505
lradius 38.3388
lwrist -4.17022
lhand 1.84022 -12.5876
lfingers 7.12502
lthumb 27.3518 15.4478
rfemur -18.4033 -8.61733 12.3311
rtibia 31.126
rfoot -16.4181 -10.9044
rtoes 14.7817
lfemur -17.8336 3.91967 -17.5316
ltibia 28.4587
lfoot -17.4352 2.94479
ltoes -27.5
392
root 0.843186 17.6785 4.18459 6.96002 1.83267 1.78117
lowerback 12.5225 0.742107 -3.85038
upperback 4.40293 0.560276 1.11528
thorax -2.444 0.256929 3.25658
lowerneck -2.85431 -3.7615 -4.42545
upperneck -8.8866 -4.24718 12.1014
head -1.75904 -2.2753 4.39211
rclavicle 5.06901e-015 1.15295e-014
rhumerus -31.6083 -7.5472 -74.755
rradius 32.5812
rwrist 0.0809586
rhand -4.72244 -35.7201
rfingers 7.12502
rthumb 21.0601 -64.5965
lclavicle 5.06901e-015 1.15295e-014
lhumerus -42.1312 15.4274 72.5146
lradius 37.0741
lwrist -5.35467
lhand 1.97377 -12.536
lfingers 7.12502
lthumb 27.4795 15.4792
rfemur -16.3293 -7.4821 12.5174
rtibia 28.5457
rfoot -15.9207 -11.5168
rtoes 15.3849
lfemur -15.77 3.06539 -17.2058
ltibia 25.9436
lfoot -16.6702 3.35058
ltoes -27.4764
393
root 0.827009 17.7357 4.30624 6.73451 1.84231 1.26279
lowerback 11.3875 0.69317 -3.67383
upperback 3.77805 0.556989 1.30232
thorax -2.47951 0.266279 3.35425
lowerneck -3.57669 -3.89848 -4.37836
upperneck -7.38771 -4.58458 11.5181
head -1.34239 -2.3609 4.59664
rclavicle -3.97569e-016 4.77083e-015
rhumerus -32.3811 -10.1421 -74.1139
rradius 31.1208
rwrist 0.740093
rhand -5.21256 -35.5731
rfingers 7.12502
rthumb 20.5892 -64.5011
lclavicle -3.97569e-016 4.77083e-015
lhumerus -43.0253 17.7643 71.1317
lradius 35.8329
lwrist -6.55041
lhand 1.92695 -12.5514
lfingers 7.12502
lthumb 27.4347 15.4709
rfemur -14.3221 -6.00536 13.1913
rtibia 25.9874
rfoot -15.3958 -12.3315
rtoes 15.9931
lfemur -13.7757 2.31447 -16.4559
ltibia 23.5008
lfoot -15.871 3.73423
ltoes -27.5223
394
root 0.816423 17.7831 4.41585 6.57851 1.8739 0.84151
lowerback 10.364 0.625683 -3.46882
upperback 3.11023 0.521862 1.41157
thorax -2.61128 0.262343 3.35793
lowerneck -4.23787 -4.02777 -3.94198
upperneck -6.10949 -4.88432 10.8272
head -0.80901 -2.46561 4.20665
rclavicle 2.38542e-015 -1.59028e-015
rhumerus -33.1649 -13.0237 -73.263
rradius 29.7046
rwrist 1.87695
rhand -5.06654 -35.4312
rfingers 7.12502
rthumb 20.7295 -64.344
lclavicle 2.38542e-015 -1.59028e-015
lhumerus -43.8893 20.1229 69.5956
lradius 34.622
lwrist -7.75426
lhand 1.54242 -12.5254
lfingers 7.12502
lthumb 27.0669 15.5547
rfemur -12.5533 -4.53518 13.7711
rtibia 23.6498
rfoot -14.9649 -13.1027
rtoes 17.0271
lfemur -11.992 1.64108 -15.8796
ltibia 21.2087
lfoot -15.2076 4.07761
ltoes -28.0722
395
root 0.812738 17.8174 4.52123 6.44722 2.03244 0.860476
lowerback 9.33492 0.520548 -3.57373
upperback 2.50738 0.400683 1.38692
thorax -2.66084 0.213384 3.40693
lowerneck -4.66768 -4.06032 -3.53924
upperneck -5.20597 -5.0196 10.1932
head -0.459313 -2.50452 3.87184
rclavicle 2.5842e-015 -1.63003e-014
rhumerus -33.8747 -15.8498 -72.3223
rradius 28.4629
rwrist 2.98719
rhand -4.95123 -35.4709
rfingers 7.12502
rthumb 20.8403 -64.3716
lclavicle 2.5842e-015 -1.63003e-014
lhumerus -44.6707 22.5526 67.985
lradius 33.5294
lwrist -8.86742
lhand 1.09871 -12.3829
lfingers 7.12502
lthumb 26.6423 15.7624
rfemur -10.8733 -3.48808 13.7864
rtibia 21.4902
rfoot -14.5785 -13.7126
rtoes 18.306
lfemur -10.3717 1.00336 -15.8981
ltibia 19.1983
lfoot -14.7602 4.23763
ltoes -28.4095
396
root 0.81053 17.8401 4.62379 6.28266 2.30408 1.03781
lowerback 8.33412 0.366318 -3.82662
upperback 1.96666 0.201891 1.33567
thorax -2.65077 0.124694 3.51813
lowerneck -4.80434 -4.04174 -3.40695
upperneck -4.57013 -5.05041 9.82879
head -0.243385 -2.50262 3.70391
rclavicle 3.57812e-015 2.18663e-014
rhumerus -34.536 -18.3793 -71.3748
rradius 27.3557
rwrist 3.90901
rhand -5.09755 -35.5776
rfingers 7.12502
rthumb 20.6997 -64.4937
lclavicle 3.57812e-015 2.18663e-014
lhumerus -45.4764 25.0441 66.3223
lradius 32.5929
lwrist -9.68764
lhand 0.667221 -12.2077
lfingers 7.12502
lthumb 26.2293 15.9997
rfemur -9.26669 -2.7869 13.6265
rtibia 19.6485
rfoot -14.2683 -14.2831
rtoes 19.3406
lfemur -8.86296 0.459443 -16.1138
ltibia 17.4163
lfoot -14.4078 4.22082
ltoes -28.5703
397
root 0.805376 17.8554 4.71586 6.08755 2.63138 1.04644
lowerback 7.51765 0.177971 -3.94855
upperback 1.42516 -0.0339654 1.3313
thorax -2.73671 0.0195952 3.60485
lowerneck -4.67561 -4.04104 -3.56864
upperneck -4.12389 -5.07589 9.8196
head -0.116467 -2.50598 3.7271
rclavicle -1.63997e-015 1.98785e-015
rhumerus -35.2136 -20.5817 -70.4773
rradius 26.3349
rwrist 4.73656
rhand -5.45993 -35.4839
rfingers 7.12502
rthumb 20.3515 -64.4376
lclavicle -1.63997e-015 1.98785e-015
lhumerus -46.3584 27.3221 64.7361
lradius 31.8696
lwrist -10.1216
lhand -0.0283583 -12.0388
lfingers 7.12502
lthumb 25.5632 16.2658
rfemur -7.80775 -2.0698 13.7176
rtibia 18.0903
rfoot -14.0877 -14.9162
rtoes 19.8892
lfemur -7.55768 0.15061 -16.0766
ltibia 15.8376
lfoot -14.0629 4.01921
ltoes -28.8921
398
root 0.794776 17.8643 4.79831 5.8121 2.88027 0.9396
lowerback 6.91503 0.0592068 -4.00895
upperback 0.926823 -0.178433 1.36036
thorax -2.90332 -0.0388976 3.68142
lowerneck -5.06915 -4.13445 -3.48858
upperneck -3.21548 -5.26649 9.44351
head 0.242393 -2.5734 3.55482
rclavicle -8.94531e-016 1.13307e-014
rhumerus -35.7953 -22.5097 -69.633
rradius 25.2745
rwrist 5.41518
rhand -5.84904 -35.385
rfingers 7.12502
rthumb 19.9775 -64.378
lclavicle -8.94531e-016 1.13307e-014
lhumerus -47.0698 29.182 63.5265
lradius 31.3012
lwrist -10.0537
lhand -1.08683 -11.6708
lfingers 7.12502
lthumb 24.549 16.7755
rfemur -6.44421 -1.4072 13.9562
rtibia 16.7409
rfoot -13.9698 -15.4025
rtoes 20.1529
lfemur -6.35156 0.0674201 -15.8243
ltibia 14.6279
lfoot -13.9034 3.73663
ltoes -29.0282
399
root 0.782833 17.8668 4.87442 5.487 3.07338 0.815522
lowerback 6.40907 0.00551079 -4.02573
upperback 0.459145 -0.236958 1.36584
thorax -3.09939 -0.0547848 3.70058
lowerneck -5.02008 -4.18287 -3.79536
upperneck -2.74713 -5.34933 9.56954
head 0.404162 -2.60263 3.65054
rclavicle 1.07344e-014 -3.57812e-015
rhumerus -36.3343 -24.2272 -68.8137
rradius 24.2169
rwrist 6.04281
rhand -5.9183 -35.6077
rfingers 7.12502
rthumb 19.9109 -64.6077
lclavicle 1.07344e-014 -3.57812e-015
lhumerus -47.5466 30.7226 62.6194
lradius 30.7191
lwrist -9.76982
lhand -2.3044 -11.2523
lfingers 7.12502
lthumb 23.3814 17.3475
rfemur -5.21703 -1.07402 14.1756
rtibia 15.6913
rfoot -13.9504 -15.6311
rtoes 20.3728
lfemur -5.20496 0.0820601 -15.5086
ltibia 13.741
lfoot -14.0374 3.40814
ltoes -28.9254
